<?xml version="1.0" encoding="UTF-8"?>
<svg version="1.1" xmlns="http://www.w3.org/2000/svg" width="1406" height="625">
<path d="M0 0 C13.14285676 11.32789082 19.89678278 25.70265693 22.2109375 42.74609375 C22.31844677 44.20284435 22.4003373 45.661639 22.4609375 47.12109375 C22.5125 48.01054688 22.5640625 48.9 22.6171875 49.81640625 C24.15834586 100.0324828 -2.52361979 151.84880837 -23.59771729 196.13873291 C-24.9897911 199.07027447 -26.37353493 202.00572914 -27.75773621 204.94099426 C-40.50204548 231.96523871 -40.50204548 231.96523871 -46.5078125 244.30078125 C-46.81267578 244.92820724 -47.11753906 245.55563324 -47.43164062 246.20207214 C-48.83251851 249.0844442 -50.23888777 251.96382516 -51.65625 254.83813477 C-54.1147227 259.88149965 -56.24710766 264.65335629 -57.5390625 270.12109375 C-46.05819774 278.61693367 -31.63817904 279.49244747 -17.828125 277.6171875 C-10.10440637 276.17619522 -3.03516261 274.53074765 2.015625 268.16015625 C5.90934309 262.24258469 6.61031941 257.45515516 6.66625977 250.41503906 C6.67615936 249.64392288 6.68605896 248.8728067 6.69625854 248.07832336 C6.72778828 245.53531948 6.75259718 242.99229693 6.77734375 240.44921875 C6.79792064 238.68373129 6.81891731 236.91824868 6.84031677 235.152771 C6.89546149 230.51023284 6.94490425 225.86765077 6.99316406 221.22503662 C7.05227604 215.65242215 7.11846215 210.07988776 7.18346405 204.50733948 C7.28137795 196.04530656 7.37029939 187.58322183 7.4609375 179.12109375 C25.2809375 179.12109375 43.1009375 179.12109375 61.4609375 179.12109375 C61.58126393 198.90364982 61.58126393 198.90364982 61.60742188 207.43945312 C61.62524556 213.2278688 61.6461603 219.01614 61.68725586 224.80444336 C61.72023317 229.47939686 61.73786996 234.15419508 61.74556923 238.82925606 C61.7510448 240.59873455 61.76173337 242.36820609 61.77812767 244.13761711 C61.95602803 264.16364299 59.77153146 282.57459649 47.4609375 299.12109375 C46.3471875 300.66796875 46.3471875 300.66796875 45.2109375 302.24609375 C26.81940767 321.47360221 -1.47108073 324.35984414 -26.62451172 325.07324219 C-44.58551616 325.36812884 -62.6886828 323.62996591 -79.5390625 317.12109375 C-90.32569624 340.88341337 -99.68929534 366.4348425 -104.5390625 392.12109375 C-104.78011719 393.34441406 -105.02117187 394.56773437 -105.26953125 395.828125 C-108.06779597 412.26088762 -108.66947865 430.49963621 -99.265625 444.9296875 C-94.52217644 450.95021836 -88.12009686 454.88831157 -80.5390625 456.12109375 C-63.07380663 457.30243069 -45.16083386 448.98714195 -30.5390625 440.12109375 C-29.40573486 439.43756836 -29.40573486 439.43756836 -28.24951172 438.74023438 C-18.28042313 432.68235754 -8.73086876 426.30857559 0.4609375 419.12109375 C1.4921875 418.34378906 2.5234375 417.56648438 3.5859375 416.765625 C10.04002804 411.8997087 16.25554546 406.81736212 22.35961914 401.51904297 C25.93933264 398.41238628 29.57248557 395.39641998 33.2734375 392.43359375 C37.49297487 389.01218002 41.34496559 385.38269162 45.09765625 381.45703125 C47.01528832 379.56158666 48.95429729 377.82329372 51.00097656 376.07446289 C55.93877543 371.76758155 60.55756373 367.1682265 65.18359375 362.53125 C66.08790634 361.62789413 66.99221893 360.72453827 67.92393494 359.79380798 C69.82528693 357.89313307 71.72561303 355.99149767 73.62426758 354.08813477 C76.03679611 351.66990983 78.45378831 349.25620417 80.87215519 346.84381962 C83.20758325 344.51290974 85.53915927 342.17815419 87.87109375 339.84375 C88.72856705 338.98830093 89.58604034 338.13285187 90.46949768 337.2514801 C94.82639264 332.87772415 99.03958925 328.44096421 103.0532074 323.74900818 C104.76314496 321.77161775 106.58078927 319.93640929 108.4609375 318.12109375 C111.56683364 315.05653082 114.44879541 311.88352077 117.2890625 308.57421875 C120.23217743 305.24998102 123.28951838 302.03797495 126.3359375 298.80859375 C131.18409794 293.65647141 135.77211525 288.39482274 140.1875 282.86328125 C142.83437589 279.67065775 145.62681456 276.64690291 148.4609375 273.62109375 C152.88192284 268.89480705 157.06160576 264.04743597 161.1171875 259 C163.84034074 255.6550601 166.64359388 252.38667118 169.4609375 249.12109375 C173.71203684 244.18471879 177.89220637 239.201418 182 234.14453125 C184.45959028 231.12274891 186.9354912 228.11506143 189.4152832 225.10986328 C200.1248224 212.13028036 210.76062753 199.10165868 221.11816406 185.83886719 C223.39327698 182.92837728 225.67767448 180.0251909 227.9609375 177.12109375 C228.87632367 175.95574613 229.79168826 174.79038155 230.70703125 173.625 C232.55157746 171.27721702 234.39811806 168.93102188 236.24609375 166.5859375 C245.17915751 155.2449806 253.95848255 143.78926804 262.7109375 132.30859375 C263.72160278 130.98299438 263.72160278 130.98299438 264.75268555 129.63061523 C268.67773639 124.47731719 272.58340646 119.31024972 276.4609375 114.12109375 C275.45675781 113.96253906 274.45257812 113.80398437 273.41796875 113.640625 C260.19283402 111.434268 248.75808282 107.54201765 237.4609375 100.12109375 C240.12117457 95.25015041 243.00802691 90.89565871 246.4609375 86.55859375 C249.6550412 82.51756861 252.65372725 78.44237804 255.4609375 74.12109375 C259.8088557 74.77986923 263.43511069 76.3957394 267.4609375 78.12109375 C280.14002707 81.79135652 292.14728707 76.73677001 303.28125 70.91015625 C305.88938309 69.44268087 308.21992468 67.93876025 310.5859375 66.12109375 C313.4609375 64.12109375 313.4609375 64.12109375 315.39697266 64.3347168 C317.67578381 65.20295085 319.38340954 66.27490126 321.359375 67.703125 C322.44992187 68.48333008 322.44992187 68.48333008 323.5625 69.27929688 C324.31273437 69.82521484 325.06296875 70.37113281 325.8359375 70.93359375 C327.32242061 72.00329384 328.809391 73.07231715 330.296875 74.140625 C331.00295898 74.64932129 331.70904297 75.15801758 332.43652344 75.68212891 C335.07330445 77.5563676 337.75558849 79.34758718 340.4609375 81.12109375 C340.16927083 82.43359375 339.87760417 83.74609375 339.5859375 85.05859375 C339.40417969 85.89132813 339.22242188 86.7240625 339.03515625 87.58203125 C338.68865921 89.11416102 338.32216792 90.64222843 337.91796875 92.16015625 C334.69227207 104.72339597 333.74478658 119.01813206 339.859375 130.8203125 C342.3250581 134.70657952 344.6645897 137.48086914 348.4609375 140.12109375 C347.03131221 143.19159331 345.32710034 145.81069608 343.30859375 148.52734375 C342.69693359 149.35363281 342.08527344 150.17992187 341.45507812 151.03125 C340.81763672 151.88589844 340.18019531 152.74054688 339.5234375 153.62109375 C338.57307617 154.90306641 338.57307617 154.90306641 337.60351562 156.2109375 C334.89986856 159.85560158 332.18536945 163.49194284 329.4609375 167.12109375 C323.31937491 166.26183843 319.16643913 160.72370198 315.4609375 156.12109375 C310.75617341 149.3595601 306.97144539 141.9664309 304.4609375 134.12109375 C299.37863312 140.17878988 294.49288056 146.34150018 289.7734375 152.68359375 C283.71656313 160.82099961 277.5025699 168.82871936 271.25634766 176.82128906 C268.85043151 179.90311258 266.45230827 182.9909574 264.05419922 186.07885742 C261.72807218 189.07310019 259.3988145 192.06489696 257.06884766 195.05615234 C256.04700361 196.36844462 255.02577379 197.68121557 254.00537109 198.99462891 C248.01444912 206.70270765 241.88581223 214.28130582 235.65673828 221.79833984 C231.9773228 226.24812349 228.37581429 230.74727602 224.8359375 235.30859375 C220.64285571 240.70377456 216.27178469 245.91673341 211.80029297 251.08276367 C208.79794712 254.55267199 205.8518839 258.05698475 202.9609375 261.62109375 C199.02817648 266.46579936 194.98000587 271.20095018 190.90454102 275.92529297 C187.84076185 279.48514973 184.84503785 283.08788151 181.8984375 286.74609375 C178.28382486 291.20389813 174.46277303 295.43528697 170.55322266 299.63232422 C167.48762472 302.94291211 164.5990577 306.35001108 161.7734375 309.87109375 C158.50939031 313.9264251 155.07669647 317.6157142 151.34765625 321.2421875 C148.89934599 323.68035983 146.66571231 326.27128746 144.41015625 328.88671875 C140.72151804 333.11497737 136.90564581 337.22727469 133.09822083 341.34823608 C132.04430756 342.48941806 130.99132489 343.63146054 129.9394989 344.77456665 C119.10319744 356.53409612 107.86088063 367.87750465 96.54272461 379.16967773 C94.00587279 381.70077099 91.47362527 384.23641625 88.94262028 386.77335453 C86.9582731 388.76133693 84.97152407 390.74690529 82.98406792 392.7317791 C81.60254418 394.11233051 80.2229996 395.49486159 78.84352112 396.87745667 C74.39711095 401.30741471 69.89704008 405.60685349 65.12945557 409.69068909 C62.74731448 411.73287597 60.45299424 413.86715642 58.1484375 415.99609375 C53.65729737 420.09186529 49.04499656 423.98030955 44.3125 427.79296875 C41.84612991 429.80660789 39.4320557 431.86833866 37.02783203 433.95532227 C6.23859899 460.54689577 -36.90975764 491.53369388 -79.6796875 490.359375 C-97.4456268 488.87888006 -112.69731951 481.35704807 -124.5390625 468.12109375 C-127.23083276 464.60987314 -129.45747661 461.02126946 -131.5390625 457.12109375 C-131.99796875 456.29480469 -132.456875 455.46851563 -132.9296875 454.6171875 C-143.97525034 432.82548972 -142.34881084 406.3793754 -137.5390625 383.12109375 C-137.36165527 382.25355469 -137.18424805 381.38601563 -137.00146484 380.4921875 C-131.59748113 355.00775201 -122.65612142 329.75518994 -111.75317383 306.11376953 C-108.54816985 299.33953266 -108.54816985 299.33953266 -109.5390625 292.12109375 C-110.27183771 290.38668337 -111.06586154 288.67707383 -111.9140625 286.99609375 C-117.04025809 276.10663203 -118.71073495 264.62132948 -118.65258789 252.68554688 C-118.65273392 251.88458588 -118.65287994 251.08362488 -118.6530304 250.25839233 C-118.6523398 247.63968086 -118.64458779 245.02104263 -118.63671875 242.40234375 C-118.63485153 240.57531778 -118.63342906 238.7482913 -118.63243103 236.92126465 C-118.62862976 232.1340596 -118.61882008 227.34688534 -118.60772705 222.55969238 C-118.59565351 216.80431759 -118.59109931 211.04893244 -118.58527374 205.29354858 C-118.57560688 196.56937562 -118.55643365 187.84527009 -118.5390625 179.12109375 C-100.7190625 179.12109375 -82.8990625 179.12109375 -64.5390625 179.12109375 C-64.2090625 186.38109375 -63.8790625 193.64109375 -63.5390625 201.12109375 C-19.82622522 121.46116879 -19.82622522 121.46116879 -14.35546875 35.7109375 C-17.73357235 28.14907379 -24.12246235 24.20423979 -31.5390625 21.12109375 C-53.0093168 13.45314579 -78.15494529 23.48813908 -97.65625 32.41015625 C-129.01914408 47.34251903 -157.05626474 68.72327586 -183.77441406 90.67675781 C-185.36312472 91.97709155 -186.96219275 93.26474622 -188.5625 94.55078125 C-194.51483196 99.34334652 -200.17377201 104.37693476 -205.7734375 109.5703125 C-207.97962197 111.60511258 -210.20538511 113.59755613 -212.4765625 115.55859375 C-220.44586937 122.47974543 -228.18934926 129.66530787 -235.58323669 137.19770813 C-237.4346098 139.01837355 -239.34013819 140.7156183 -241.31274414 142.40307617 C-245.31734845 145.88510281 -249.10252444 149.53935159 -252.84765625 153.296875 C-253.49984634 153.94810837 -254.15203644 154.59934174 -254.82398987 155.27030945 C-256.18556386 156.6312091 -257.54590074 157.99334755 -258.9050293 159.35668945 C-260.99218524 161.449257 -263.08469882 163.53636199 -265.17773438 165.62304688 C-266.50552955 166.95150194 -267.83301497 168.28026668 -269.16015625 169.609375 C-269.78611191 170.23330643 -270.41206757 170.85723785 -271.05699158 171.50007629 C-274.17606449 174.52316407 -274.17606449 174.52316407 -276.5390625 178.12109375 C-275.80945313 178.146875 -275.07984375 178.17265625 -274.328125 178.19921875 C-255.60341261 179.21636362 -235.20986221 183.39984828 -221.5390625 197.12109375 C-213.4249632 206.67535786 -211.5390625 215.69721161 -211.5390625 228.12109375 C-229.0290625 228.12109375 -246.5190625 228.12109375 -264.5390625 228.12109375 C-265.5290625 225.64609375 -265.5290625 225.64609375 -266.5390625 223.12109375 C-276.68564506 218.92079214 -289.02914025 219.68506233 -299.80322266 219.78491211 C-302.56311659 219.80880196 -305.32205795 219.80540994 -308.08203125 219.79882812 C-309.8593807 219.80439784 -311.63672615 219.81150325 -313.4140625 219.8203125 C-314.63452271 219.81894539 -314.63452271 219.81894539 -315.87963867 219.81755066 C-320.79469732 219.87824504 -324.87327936 220.55844521 -329.5390625 222.12109375 C-329.8690625 223.77109375 -330.1990625 225.42109375 -330.5390625 227.12109375 C-324.73646582 229.56202233 -318.99889773 229.60712886 -312.80078125 229.8671875 C-311.07127983 229.95215233 -311.07127983 229.95215233 -309.30683899 230.03883362 C-304.4031235 230.27956008 -299.49859493 230.50105777 -294.59399414 230.72290039 C-229.85057061 233.70430321 -229.85057061 233.70430321 -213.03515625 249.390625 C-205.72909525 257.84123864 -204.17220346 268.98605973 -204.73046875 279.84375 C-206.17274467 291.78475514 -209.48002575 300.94279669 -218.5390625 309.12109375 C-247.39606644 331.16463842 -299.16938486 327.28380211 -333.00244141 323.23022461 C-346.75697976 321.3743334 -360.08301311 318.33527831 -371.5390625 310.12109375 C-372.12042969 309.70988281 -372.70179688 309.29867188 -373.30078125 308.875 C-382.02911277 302.16935488 -385.4395375 292.61871877 -387.5390625 282.12109375 C-387.5390625 278.49109375 -387.5390625 274.86109375 -387.5390625 271.12109375 C-369.7190625 271.12109375 -351.8990625 271.12109375 -333.5390625 271.12109375 C-332.8790625 272.77109375 -332.2190625 274.42109375 -331.5390625 276.12109375 C-322.01272231 283.68612861 -306.30321226 282.30773263 -294.88183594 282.30639648 C-292.8064294 282.30857552 -290.73156262 282.32677855 -288.65625 282.34570312 C-273.91077761 283.09139978 -273.91077761 283.09139978 -260.65722656 278.67651367 C-259.34799157 277.16097733 -259.34799157 277.16097733 -259.4765625 275.05859375 C-260.42819911 272.87465008 -260.42819911 272.87465008 -263.0390625 271.93359375 C-270.18125556 270.27558465 -277.45460567 269.95794381 -284.76171875 269.69140625 C-286.52338236 269.62002952 -288.28501894 269.54798322 -290.04663086 269.4753418 C-290.95444305 269.43839203 -291.86225525 269.40144226 -292.7975769 269.3633728 C-359.04114034 266.59268012 -359.04114034 266.59268012 -376.71484375 250.28125 C-385.42913325 239.9621877 -386.42024968 228.00927216 -385.5390625 215.12109375 C-384.418783 207.85826479 -381.45117288 202.51876907 -376.5390625 197.12109375 C-375.74435547 196.22777344 -375.74435547 196.22777344 -374.93359375 195.31640625 C-364.33386922 184.78687857 -345.87930494 179.65601085 -331.2265625 178.96484375 C-323.83068459 178.57144599 -320.46685705 175.720292 -315.6640625 170.43359375 C-314.0061915 168.52333441 -312.37424809 166.59258971 -310.74169922 164.66064453 C-300.56428472 152.92649849 -289.53342954 141.9555354 -278.54150391 130.99316406 C-276.1423752 128.59945544 -273.7487198 126.20036494 -271.35546875 123.80078125 C-269.80500845 122.25098093 -268.25423841 120.7014904 -266.703125 119.15234375 C-266.00087799 118.44807251 -265.29863098 117.74380127 -264.57510376 117.01818848 C-260.62552473 113.08705469 -256.58145424 109.33143506 -252.34384155 105.71179199 C-250.49613751 104.08326047 -248.76300273 102.37941511 -247.0390625 100.62109375 C-244.07170927 97.60695793 -240.96560958 94.82192042 -237.76171875 92.0625 C-235.20929367 89.83305314 -232.72018736 87.54107993 -230.2265625 85.24609375 C-225.76517905 81.17691984 -221.17961532 77.32131559 -216.48046875 73.53125 C-213.76205607 71.30381225 -211.09784467 69.02824847 -208.44311523 66.72607422 C-201.88369934 61.03890671 -195.18475204 55.6211199 -188.24169922 50.40722656 C-186.48808663 49.08258774 -184.74934029 47.74006193 -183.01171875 46.39453125 C-167.28909449 34.30385589 -150.69914337 23.06951718 -133.47070312 13.22802734 C-132.08986678 12.43673412 -130.71410085 11.63656627 -129.34179688 10.83056641 C-110.55785094 -0.18138527 -90.84308926 -8.24848887 -69.5390625 -12.87890625 C-68.41757812 -13.12382813 -67.29609375 -13.36875 -66.140625 -13.62109375 C-43.14160876 -17.850132 -18.82224008 -14.59965543 0 0 Z " fill="#F2DF7F" transform="translate(1047.5390625,47.87890625)"/>
<path d="M0 0 C2.27881115 0.86823406 3.98643688 1.94018446 5.96240234 3.3684082 C6.68943359 3.88854492 7.41646484 4.40868164 8.16552734 4.94458008 C8.91576172 5.49049805 9.66599609 6.03641602 10.43896484 6.59887695 C11.92544795 7.66857704 13.41241835 8.73760035 14.89990234 9.8059082 C15.60598633 10.31460449 16.31207031 10.82330078 17.03955078 11.34741211 C19.67633179 13.22165081 22.35861583 15.01287038 25.06396484 16.78637695 C24.77229818 18.09887695 24.48063151 19.41137695 24.18896484 20.72387695 C24.00720703 21.55661133 23.82544922 22.3893457 23.63818359 23.24731445 C23.29168655 24.77944422 22.92519526 26.30751164 22.52099609 27.82543945 C19.29529941 40.38867917 18.34781392 54.68341526 24.46240234 66.4855957 C26.92808545 70.37186273 29.26761704 73.14615235 33.06396484 75.78637695 C31.63433955 78.85687651 29.93012769 81.47597929 27.91162109 84.19262695 C27.29996094 85.01891602 26.68830078 85.84520508 26.05810547 86.6965332 C25.42066406 87.55118164 24.78322266 88.40583008 24.12646484 89.28637695 C23.49289062 90.14102539 22.85931641 90.99567383 22.20654297 91.8762207 C19.5028959 95.52088479 16.78839679 99.15722604 14.06396484 102.78637695 C7.92240226 101.92712164 3.76946648 96.38898519 0.06396484 91.78637695 C-4.64079924 85.0248433 -8.42552727 77.6317141 -10.93603516 69.78637695 C-16.01833954 75.84407309 -20.9040921 82.00678338 -25.62353516 88.34887695 C-31.68040953 96.48628281 -37.89440276 104.49400256 -44.140625 112.48657227 C-46.54654115 115.56839578 -48.94466438 118.65624061 -51.34277344 121.74414062 C-53.66890047 124.73838339 -55.99815816 127.73018017 -58.328125 130.72143555 C-59.34996904 132.03372782 -60.37119886 133.34649877 -61.39160156 134.65991211 C-67.38252353 142.36799086 -73.51116043 149.94658902 -79.74023438 157.46362305 C-83.41964986 161.91340669 -87.02115836 166.41255923 -90.56103516 170.97387695 C-94.75411694 176.36905777 -99.12518796 181.58201661 -103.59667969 186.74804688 C-106.59902554 190.21795519 -109.54508876 193.72226795 -112.43603516 197.28637695 C-116.36879618 202.13108256 -120.41696679 206.86623338 -124.49243164 211.59057617 C-127.5562108 215.15043293 -130.55193481 218.75316471 -133.49853516 222.41137695 C-137.1131478 226.86918133 -140.93419963 231.10057017 -144.84375 235.29760742 C-147.90934794 238.60819531 -150.79791495 242.01529429 -153.62353516 245.53637695 C-156.88758234 249.59170831 -160.32027618 253.2809974 -164.04931641 256.9074707 C-166.49762667 259.34564303 -168.73126035 261.93657066 -170.98681641 264.55200195 C-174.67545461 268.78026058 -178.49132685 272.89255789 -182.29875183 277.01351929 C-183.3526651 278.15470126 -184.40564777 279.29674374 -185.45747375 280.43984985 C-196.29377522 292.19937932 -207.53609203 303.54278785 -218.85424805 314.83496094 C-221.39109986 317.36605419 -223.92334739 319.90169946 -226.45435238 322.43863773 C-228.43869955 324.42662013 -230.42544859 326.41218849 -232.41290474 328.3970623 C-233.79442848 329.77761371 -235.17397305 331.16014479 -236.55345154 332.54273987 C-240.99986171 336.97269791 -245.49993257 341.27213669 -250.26751709 345.35597229 C-252.64965817 347.39815918 -254.94397841 349.53243962 -257.24853516 351.66137695 C-261.73967529 355.75714849 -266.35197609 359.64559275 -271.08447266 363.45825195 C-273.55084275 365.4718911 -275.96491696 367.53362186 -278.36914062 369.62060547 C-309.15837366 396.21217897 -352.30673029 427.19897709 -395.07666016 426.0246582 C-412.84259946 424.54416326 -428.09429217 417.02233127 -439.93603516 403.78637695 C-442.62780541 400.27515634 -444.85444927 396.68655266 -446.93603516 392.78637695 C-447.39494141 391.96008789 -447.85384766 391.13379883 -448.32666016 390.2824707 C-459.372223 368.49077292 -457.74578349 342.0446586 -452.93603516 318.78637695 C-452.66992432 317.48506836 -452.66992432 317.48506836 -452.3984375 316.1574707 C-446.1731601 286.79992841 -435.55428295 256.54173037 -421.93603516 229.78637695 C-421.55833984 230.34325195 -421.18064453 230.90012695 -420.79150391 231.47387695 C-414.31610042 240.45148553 -405.95001744 246.25174347 -395.93603516 250.78637695 C-396.50409064 254.80912222 -397.38040346 258.31341428 -398.90478516 262.07543945 C-399.50770386 263.58980591 -399.50770386 263.58980591 -400.12280273 265.13476562 C-400.55616943 266.21604736 -400.98953613 267.2973291 -401.43603516 268.41137695 C-422.20935613 319.33348766 -422.20935613 319.33348766 -418.93603516 372.78637695 C-414.97870413 381.42839891 -409.62278431 387.06185133 -400.81103516 390.72387695 C-384.79495674 395.20294973 -365.42438715 386.82516887 -351.54443359 379.11791992 C-349.6604033 378.0301106 -347.79629234 376.91436134 -345.93603516 375.78637695 C-344.80270752 375.10285156 -344.80270752 375.10285156 -343.64648438 374.40551758 C-333.67739579 368.34764075 -324.12784142 361.97385879 -314.93603516 354.78637695 C-313.90478516 354.00907227 -312.87353516 353.23176758 -311.81103516 352.4309082 C-305.35694462 347.56499191 -299.1414272 342.48264533 -293.03735352 337.18432617 C-289.45764002 334.07766949 -285.82448709 331.06170319 -282.12353516 328.09887695 C-277.90399778 324.67746322 -274.05200707 321.04797483 -270.29931641 317.12231445 C-268.38168434 315.22686986 -266.44267537 313.48857692 -264.39599609 311.73974609 C-259.45819723 307.43286475 -254.83940893 302.8335097 -250.21337891 298.1965332 C-249.30906631 297.29317734 -248.40475372 296.38982147 -247.47303772 295.45909119 C-245.57168572 293.55841628 -243.67135963 291.65678087 -241.77270508 289.75341797 C-239.36017655 287.33519304 -236.94318434 284.92148738 -234.52481747 282.50910282 C-232.18938941 280.17819294 -229.85781339 277.84343739 -227.52587891 275.5090332 C-226.66840561 274.65358414 -225.81093231 273.79813507 -224.92747498 272.91676331 C-220.57058001 268.54300736 -216.3573834 264.10624741 -212.34376526 259.41429138 C-210.6338277 257.43690095 -208.81618339 255.60169249 -206.93603516 253.78637695 C-203.83013901 250.72181403 -200.94817725 247.54880398 -198.10791016 244.23950195 C-195.16479522 240.91526422 -192.10745428 237.70325816 -189.06103516 234.47387695 C-184.21287471 229.32175462 -179.62485741 224.06010594 -175.20947266 218.52856445 C-172.56259676 215.33594095 -169.77015809 212.31218612 -166.93603516 209.28637695 C-162.51504982 204.56009025 -158.3353669 199.71271918 -154.27978516 194.6652832 C-151.55663191 191.3203433 -148.75337877 188.05195438 -145.93603516 184.78637695 C-141.68493581 179.85000199 -137.50476629 174.8667012 -133.39697266 169.80981445 C-130.93738238 166.78803211 -128.46148145 163.78034463 -125.98168945 160.77514648 C-115.27215025 147.79556356 -104.63634513 134.76694188 -94.27880859 121.50415039 C-92.00369567 118.59366048 -89.71929818 115.69047411 -87.43603516 112.78637695 C-86.52064898 111.62102933 -85.60528439 110.45566475 -84.68994141 109.2902832 C-82.8453952 106.94250023 -80.99885459 104.59630509 -79.15087891 102.2512207 C-70.21781514 90.91026381 -61.4384901 79.45455124 -52.68603516 67.97387695 C-51.67536987 66.64827759 -51.67536987 66.64827759 -50.64428711 65.29589844 C-46.71923627 60.14260039 -42.81356619 54.97553292 -38.93603516 49.78637695 C-39.94021484 49.62782227 -40.94439453 49.46926758 -41.97900391 49.3059082 C-55.20413864 47.0995512 -66.63888984 43.20730085 -77.93603516 35.78637695 C-75.27579808 30.91543361 -72.38894574 26.56094192 -68.93603516 22.22387695 C-65.74193145 18.18285181 -62.7432454 14.10766124 -59.93603516 9.78637695 C-55.58811696 10.44515244 -51.96186197 12.06102261 -47.93603516 13.78637695 C-35.25694558 17.45663972 -23.24968559 12.40205321 -12.11572266 6.57543945 C-9.50758956 5.10796408 -7.17704798 3.60404346 -4.81103516 1.78637695 C-1.93603516 -0.21362305 -1.93603516 -0.21362305 0 0 Z " fill="#F3DF7E" transform="translate(1362.93603515625,112.213623046875)"/>
<path d="M0 0 C21.78 0 43.56 0 66 0 C79.73891967 25.18801939 79.73891967 25.18801939 84.875 34.75 C85.44452393 35.80856201 86.01404785 36.86712402 86.60083008 37.95776367 C89.37500724 43.11435791 92.14650871 48.27238446 94.91601562 53.43148804 C95.88323019 55.23285879 96.85095042 57.03395691 97.81884766 58.83496094 C99.03702437 61.10197284 100.25419591 63.36952525 101.47021484 65.63769531 C102.02016113 66.66088867 102.57010742 67.68408203 103.13671875 68.73828125 C103.61842529 69.63587158 104.10013184 70.53346191 104.59643555 71.45825195 C106.00577617 74.0104602 107.48465408 76.50952296 109 79 C113.00437968 72.80797244 116.53348554 66.42877254 119.98773193 59.91564941 C120.96066411 58.08132744 121.93713223 56.24892717 122.91455078 54.41699219 C124.2723051 51.87194181 125.62899787 49.3263306 126.98486328 46.78027344 C141.08176327 20.32178939 141.08176327 20.32178939 148.3125 7.4375 C148.86333252 6.45475098 148.86333252 6.45475098 149.42529297 5.45214844 C151.87086032 1.12913968 151.87086032 1.12913968 153 0 C174.78 0 196.56 0 219 0 C219 47.19 219 94.38 219 143 C201.18 143 183.36 143 165 143 C164.67 122.21 164.34 101.42 164 80 C160.5040625 86.125625 160.5040625 86.125625 156.9375 92.375 C150.6444491 103.39598733 144.32192836 114.39940716 137.96264648 125.38232422 C134.58421925 131.22398244 131.25167383 137.08676748 128 143 C96.66375717 146.75977071 96.66375717 146.75977071 88.13134766 141.09570312 C83.44531467 135.72742474 81.02545154 129.22884875 78.50927734 122.63769531 C76.07172122 116.76264092 72.8138636 111.40061147 69.57144165 105.94104004 C67.87582834 103.06706023 66.23869853 100.16108447 64.59375 97.2578125 C61.4821377 91.77966036 58.24501694 86.40836156 55 81 C54.67 101.46 54.34 121.92 54 143 C36.18 143 18.36 143 0 143 C0 95.81 0 48.62 0 0 Z " fill="#181D35" transform="translate(436,227)"/>
<path d="M0 0 C0.87824432 0.00060425 1.75648865 0.0012085 2.66134644 0.00183105 C57.75437966 0.10463411 57.75437966 0.10463411 77.33984375 18.73828125 C85.0172098 28.27037732 87.3125 37.99218741 87.3125 50.1875 C69.8225 50.1875 52.3325 50.1875 34.3125 50.1875 C33.3225 47.7125 33.3225 47.7125 32.3125 45.1875 C22.16591744 40.98719839 9.82242225 41.75146858 -0.95166016 41.85131836 C-3.71155409 41.87520821 -6.47049545 41.87181619 -9.23046875 41.86523438 C-11.0078182 41.87080409 -12.78516365 41.8779095 -14.5625 41.88671875 C-15.78296021 41.88535164 -15.78296021 41.88535164 -17.02807617 41.88395691 C-21.94313482 41.94465129 -26.02171686 42.62485146 -30.6875 44.1875 C-31.0175 45.8375 -31.3475 47.4875 -31.6875 49.1875 C-25.88490332 51.62842858 -20.14733523 51.67353511 -13.94921875 51.93359375 C-12.21971733 52.01855858 -12.21971733 52.01855858 -10.45527649 52.10523987 C-5.551561 52.34596633 -0.64703243 52.56746402 4.25756836 52.78930664 C69.00099189 55.77070946 69.00099189 55.77070946 85.81640625 71.45703125 C93.12246725 79.90764489 94.67935904 91.05246598 94.12109375 101.91015625 C92.67881783 113.85116139 89.37153675 123.00920294 80.3125 131.1875 C51.45549606 153.23104467 -0.31782236 149.35020836 -34.15087891 145.29663086 C-47.90541726 143.44073965 -61.23145061 140.40168456 -72.6875 132.1875 C-73.26886719 131.77628906 -73.85023438 131.36507812 -74.44921875 130.94140625 C-83.17755027 124.23576113 -86.587975 114.68512502 -88.6875 104.1875 C-88.6875 100.5575 -88.6875 96.9275 -88.6875 93.1875 C-70.8675 93.1875 -53.0475 93.1875 -34.6875 93.1875 C-34.0275 94.8375 -33.3675 96.4875 -32.6875 98.1875 C-23.16115981 105.75253486 -7.45164976 104.37413888 3.96972656 104.37280273 C6.0451331 104.37498177 8.11999988 104.3931848 10.1953125 104.41210938 C24.94078489 105.15780603 24.94078489 105.15780603 38.19433594 100.74291992 C39.50357093 99.22738358 39.50357093 99.22738358 39.375 97.125 C38.42336339 94.94105633 38.42336339 94.94105633 35.8125 94 C28.67030694 92.3419909 21.39695683 92.02435006 14.08984375 91.7578125 C12.32818014 91.68643577 10.56654356 91.61438947 8.80493164 91.54174805 C7.89711945 91.50479828 6.98930725 91.46784851 6.0539856 91.42977905 C-60.18957784 88.65908637 -60.18957784 88.65908637 -77.86328125 72.34765625 C-86.57757075 62.02859395 -87.56868718 50.07567841 -86.6875 37.1875 C-85.5672205 29.92467104 -82.59961038 24.58517532 -77.6875 19.1875 C-77.15769531 18.59195313 -76.62789062 17.99640625 -76.08203125 17.3828125 C-67.81794195 9.17345227 -55.80443015 5.37990634 -44.6875 2.8125 C-44.02572754 2.65692627 -43.36395508 2.50135254 -42.68212891 2.34106445 C-28.80769138 -0.53887754 -14.1069874 -0.01799722 0 0 Z " fill="#191F36" transform="translate(748.6875,225.8125)"/>
<path d="M0 0 C17.82 0 35.64 0 54 0 C54.12032643 19.78255607 54.12032643 19.78255607 54.14648438 28.31835938 C54.16430806 34.10677505 54.1852228 39.89504625 54.22631836 45.68334961 C54.25929567 50.35830311 54.27693246 55.03310133 54.28463173 59.70816231 C54.2901073 61.4776408 54.30079587 63.24711234 54.31719017 65.01652336 C54.49509053 85.04254924 52.31059396 103.45350274 40 120 C38.88625 121.546875 38.88625 121.546875 37.75 123.125 C19.35847017 142.35250846 -8.93201823 145.23875039 -34.08544922 145.95214844 C-61.36265237 146.39998994 -88.41973285 142.3203841 -109.01171875 123.078125 C-114 117.86444008 -114 117.86444008 -114 115 C-114.66 115 -115.32 115 -116 115 C-124.57380168 100.06612413 -125.57982604 85.85216584 -125.390625 69.06640625 C-125.38314568 67.09244872 -125.37746077 65.11848366 -125.37347412 63.14451599 C-125.35835077 58.00046546 -125.31918692 52.85688148 -125.2746582 47.7130127 C-125.22613784 41.51369617 -125.20810803 35.31422185 -125.18484497 29.11476898 C-125.14632526 19.74285688 -125.06957944 10.3719643 -125 1 C-107.84 1 -90.68 1 -73 1 C-72.97421875 6.44242188 -72.9484375 11.88484375 -72.921875 17.4921875 C-72.89668583 20.95577519 -72.87033707 24.41927734 -72.83984375 27.8828125 C-72.79163375 33.37109618 -72.74754232 38.85918167 -72.72900391 44.34765625 C-72.71377484 48.77642659 -72.67921967 53.20467575 -72.63169098 57.63321304 C-72.61694128 59.3163002 -72.60896269 60.9994618 -72.60811615 62.68261337 C-72.59762736 73.08738178 -72.36059951 82.26892636 -65.8125 90.875 C-54.29967528 99.57357868 -39.13881469 100.36177154 -25.27734375 98.5 C-17.55831368 97.0470061 -10.495106 95.40840003 -5.4453125 89.0390625 C-1.55159441 83.12149094 -0.85061809 78.33406141 -0.79467773 71.29394531 C-0.78477814 70.52282913 -0.77487854 69.75171295 -0.76467896 68.95722961 C-0.73314922 66.41422573 -0.70834032 63.87120318 -0.68359375 61.328125 C-0.66301686 59.56263754 -0.64202019 57.79715493 -0.62062073 56.03167725 C-0.56547601 51.38913909 -0.51603325 46.74655702 -0.46777344 42.10394287 C-0.40866146 36.5313284 -0.34247535 30.95879401 -0.27747345 25.38624573 C-0.17955955 16.92421281 -0.09063811 8.46212808 0 0 Z " fill="#171C34" transform="translate(1055,227)"/>
<path d="M0 0 C14.19 0 28.38 0 43 0 C44.32 5.28 45.64 10.56 47 16 C54.6303683 33.00482078 70.07412302 43.14613666 86.97705078 49.77539062 C90.07830072 50.92574416 93.19549452 52.0033733 96.33203125 53.0546875 C99 54 99 54 100 55 C100.08871273 58.02977804 100.1151935 61.03667022 100.09765625 64.06640625 C100.09553383 65.42934059 100.09553383 65.42934059 100.09336853 66.81980896 C100.08775193 69.73407221 100.07519665 72.64825981 100.0625 75.5625 C100.05748714 77.53320202 100.05292386 79.50390524 100.04882812 81.47460938 C100.03777711 86.31643559 100.02050138 91.15820495 100 96 C99.21061035 96.32685791 98.4212207 96.65371582 97.60791016 96.99047852 C66.5094361 109.80166958 66.5094361 109.80166958 46.75 135.9375 C44.73413564 140.95063637 44.1076543 145.4617285 43 151 C28.81 151 14.62 151 0 151 C1.48052544 130.2726439 6.06580871 115.0488447 18 98 C-14.67 97.505 -14.67 97.505 -48 97 C-48 82.81 -48 68.62 -48 54 C-26.22 53.67 -4.44 53.34 18 53 C15.69 49.7 13.38 46.4 11 43 C9.62398628 40.37792941 8.38416412 37.89824254 7.25 35.1875 C6.9597998 34.50445801 6.66959961 33.82141602 6.37060547 33.11767578 C1.87062602 22.17460182 0.85405296 11.95674137 0 0 Z " fill="#F3DF7D" transform="translate(73,227)"/>
<path d="M0 0 C17.82 0 35.64 0 54 0 C54 47.19 54 94.38 54 143 C36.18 143 18.36 143 0 143 C0 95.81 0 48.62 0 0 Z " fill="#191F36" transform="translate(196,227)"/>
<path d="M0 0 C54.12 0 108.24 0 164 0 C164 13.86 164 27.72 164 42 C109.88 42 55.76 42 0 42 C0 28.14 0 14.28 0 0 Z " fill="#1C2239" transform="translate(261,280)"/>
<path d="M0 0 C29.97558748 -1.63732201 29.97558748 -1.63732201 34.828125 2.26171875 C36.91575228 5.09137681 38.44694079 7.70373951 39.90673828 10.87597656 C42.11111291 15.1587053 45.18845721 18.90027308 48.0625 22.75 C49.18138387 24.30513873 50.29750547 25.86227061 51.41015625 27.421875 C53.08116705 29.81632734 53.08116705 29.81632734 55 32 C55.33 21.44 55.66 10.88 56 0 C63.92 0 71.84 0 80 0 C80 20.13 80 40.26 80 61 C48.98187921 62.76525891 48.98187921 62.76525891 44.10546875 58.515625 C41.87789832 55.69744969 40.47600805 52.51962763 39.08154297 49.2265625 C36.94024582 44.81829387 33.80262179 41.03374171 30.875 37.125 C28.93625 34.44375 26.9975 31.7625 25 29 C24.67 39.56 24.34 50.12 24 61 C16.08 61 8.16 61 0 61 C0 40.87 0 20.74 0 0 Z " fill="#F3E081" transform="translate(428,401)"/>
<path d="M0 0 C7.3940625 -0.3403125 7.3940625 -0.3403125 14.9375 -0.6875 C16.47398193 -0.78764404 18.01046387 -0.88778809 19.59350586 -0.9909668 C29.4737288 -1.21052731 29.4737288 -1.21052731 33.82763672 2.24267578 C36.14500698 5.05252939 38.09489198 7.89877752 40 11 C40.95276567 12.3048122 41.91463476 13.60309234 42.890625 14.890625 C43.68114489 16.0075531 44.4677903 17.12723641 45.25 18.25 C45.64445312 18.80945313 46.03890625 19.36890625 46.4453125 19.9453125 C47.63226128 21.62876273 48.8161422 23.31437465 50 25 C52.475 28.465 52.475 28.465 55 32 C55.33 21.44 55.66 10.88 56 0 C63.92 0 71.84 0 80 0 C80 20.13 80 40.26 80 61 C75.05 61.20625 70.1 61.4125 65 61.625 C63.45441406 61.71604004 61.90882813 61.80708008 60.31640625 61.90087891 C50.44265924 62.09994639 50.44265924 62.09994639 46.4543457 59.05908203 C44.37080245 56.47878837 42.68337643 53.85520206 41 51 C39.84183801 49.39789191 38.66909249 47.80620269 37.48046875 46.2265625 C36.38012498 44.69463514 35.28244017 43.16079422 34.1875 41.625 C33.07710732 40.07531701 31.96643984 38.52583088 30.85546875 36.9765625 C30.37746826 36.30705566 29.89946777 35.63754883 29.40698242 34.94775391 C27.96209792 32.94753032 26.48050357 30.97400476 25 29 C24.67 39.56 24.34 50.12 24 61 C16.08 61 8.16 61 0 61 C0 40.87 0 20.74 0 0 Z " fill="#F3E081" transform="translate(346,401)"/>
<path d="M0 0 C21.45 0 42.9 0 65 0 C65 5.94 65 11.88 65 18 C51.47 18 37.94 18 24 18 C24 19.65 24 21.3 24 23 C37.53 23 51.06 23 65 23 C65 27.95 65 32.9 65 38 C51.47 38 37.94 38 24 38 C24 39.65 24 41.3 24 43 C37.53 43 51.06 43 65 43 C65 48.94 65 54.88 65 61 C43.55 61 22.1 61 0 61 C0 40.87 0 20.74 0 0 Z " fill="#F3DF7F" transform="translate(510,401)"/>
<path d="M0 0 C5.95504638 5.41811597 8.5453783 12.39922796 9.20703125 20.34765625 C9.24098033 31.06424825 8.73362967 39.92192701 1.0703125 47.9765625 C-11.04827097 57.82017723 -27.41538133 56.60308983 -42.09375 55.734375 C-50.602831 54.68715886 -57.52166401 51.29461417 -63.09375 44.734375 C-69.5079239 35.76953545 -68.87801309 25.31039344 -68.09375 14.734375 C-66.77887715 7.47592151 -63.18634673 2.97274338 -57.53125 -1.640625 C-42.64236624 -11.56654751 -14.15763053 -10.36174408 0 0 Z M-42.09375 15.734375 C-44.78078857 19.26111312 -45.32126138 22.0366588 -45.09375 26.359375 C-44.57255494 29.79926241 -44.21872255 30.60282494 -41.71875 33.234375 C-35.82116228 36.60442512 -29.7189351 36.19830074 -23.09375 35.734375 C-18.82905196 34.21643163 -17.59439212 33.48533819 -15.09375 29.734375 C-14.4626021 24.92737649 -14.06192926 20.30121389 -16.78125 16.171875 C-24.55276036 11.34093613 -34.24433131 10.82848832 -42.09375 15.734375 Z " fill="#F3E081" transform="translate(336.09375,407.265625)"/>
<path d="M0 0 C1.37986084 0.00628418 1.37986084 0.00628418 2.78759766 0.01269531 C13.1015449 0.18353426 23.49350622 1.55883753 31.3359375 8.84375 C37.29747554 15.24149814 38.6875 20.60659769 38.6875 29.3125 C30.7675 29.3125 22.8475 29.3125 14.6875 29.3125 C13.6975 27.3325 12.7075 25.3525 11.6875 23.3125 C6.51966254 20.28848718 0.48409668 20.79480666 -5.3125 21.3125 C-9.5242209 22.83743343 -10.83236208 23.59229311 -13.3125 27.3125 C-13.59127399 29.46193335 -13.59127399 29.46193335 -13.5 31.75 C-13.49355469 32.51183594 -13.48710938 33.27367187 -13.48046875 34.05859375 C-13.42503906 34.80238281 -13.36960937 35.54617188 -13.3125 36.3125 C-13.26738281 37.02535156 -13.22226562 37.73820312 -13.17578125 38.47265625 C-12.41259357 40.61182335 -12.41259357 40.61182335 -9.65625 41.54296875 C-3.00372707 43.07398162 3.8839762 43.26284705 10.375 41.0625 C13.06569638 39.29503088 13.06569638 39.29503088 14.6875 35.3125 C22.6075 35.3125 30.5275 35.3125 38.6875 35.3125 C37.74779237 44.70957634 36.876522 50.57666769 29.8984375 56.9453125 C21.07059318 63.01218493 10.51372854 63.80173159 0.125 63.6875 C-0.93396484 63.69910156 -1.99292969 63.71070313 -3.08398438 63.72265625 C-13.24712425 63.68508457 -22.18478629 61.64872229 -30.3125 55.3125 C-37.61021033 47.81755426 -38.63597125 38.63455273 -38.5234375 28.6640625 C-38.00469845 20.42187539 -35.4126917 13.06667242 -29.3125 7.3125 C-20.32556214 1.30592419 -10.59548521 -0.06606391 0 0 Z " fill="#F3E081" transform="translate(614.3125,399.6875)"/>
<path d="M0 0 C5.40557539 4.90711045 7.61447045 10.68439848 8.90625 17.73046875 C8.90625 19.05046875 8.90625 20.37046875 8.90625 21.73046875 C4.99014516 21.90473631 1.07503503 22.0113103 -2.84375 22.10546875 C-4.51050781 22.18087891 -4.51050781 22.18087891 -6.2109375 22.2578125 C-9.28066722 22.31328954 -12.07626148 22.30473525 -15.09375 21.73046875 C-17.546875 18.83203125 -17.546875 18.83203125 -19.09375 15.73046875 C-24.54484137 12.66974269 -31.30120691 12.86822094 -37.29296875 14.23046875 C-40.12278649 15.27459437 -41.85129129 16.38698558 -43.59375 18.85546875 C-44.3067675 22.95531939 -44.18246397 26.70222706 -43.09375 30.73046875 C-40.23968668 33.77480296 -37.28080525 34.64903488 -33.1328125 34.93359375 C-32.00617188 34.9490625 -30.87953125 34.96453125 -29.71875 34.98046875 C-28.59726563 35.00625 -27.47578125 35.03203125 -26.3203125 35.05859375 C-22.71795307 34.69225211 -20.92888018 33.95449313 -18.09375 31.73046875 C-17.43375 30.41046875 -16.77375 29.09046875 -16.09375 27.73046875 C-7.84375 27.73046875 0.40625 27.73046875 8.90625 27.73046875 C7.18768495 37.18257651 6.12646524 42.51025351 -0.34375 48.98046875 C-13.63364131 57.43767231 -31.11529177 57.93499231 -46.34765625 55.08203125 C-54.72545 52.76750499 -61.00153192 48.52824757 -65.53125 41.04296875 C-69.7937454 32.00647849 -69.89552271 18.45158359 -66.65625 9.04296875 C-63.30044541 2.28409471 -57.49781399 -2.71540066 -50.40625 -5.20703125 C-34.79094866 -9.64754067 -13.48206523 -9.89173264 0 0 Z " fill="#F3E082" transform="translate(258.09375,407.26953125)"/>
<path d="M0 0 C25.08 0 50.16 0 76 0 C76 6.6 76 13.2 76 20 C67.42 20 58.84 20 50 20 C50 33.53 50 47.06 50 61 C42.08 61 34.16 61 26 61 C26 47.47 26 33.94 26 20 C17.42 20 8.84 20 0 20 C0 13.4 0 6.8 0 0 Z " fill="#F3E081" transform="translate(654,401)"/>
<path d="M0 0 C0.66 0.33 1.32 0.66 2 1 C-2.29 5.29 -6.58 9.58 -11 14 C-11.33 13.34 -11.66 12.68 -12 12 C-8.27653164 7.57905197 -4.70478962 3.42166518 0 0 Z " fill="#6C6F7E" transform="translate(679,238)"/>
<path d="M0 0 C0.66 0.33 1.32 0.66 2 1 C-0.97 3.97 -3.94 6.94 -7 10 C-7 6.04435836 -5.59478606 4.89133304 -3 2 C-2.01 1.34 -1.02 0.68 0 0 Z " fill="#F7EBAF" transform="translate(588,405)"/>
</svg>
