<?xml version="1.0" encoding="UTF-8"?>
<svg version="1.1" xmlns="http://www.w3.org/2000/svg" width="1500" height="1500">
<path d="M0 0 C495 0 990 0 1500 0 C1500 495 1500 990 1500 1500 C1005 1500 510 1500 0 1500 C0 1005 0 510 0 0 Z " fill="#131931" transform="translate(0,0)"/>
<path d="M0 0 C1.69543694 0.01332367 1.69543694 0.01332367 3.42512512 0.0269165 C4.70622665 0.02721863 5.98732819 0.02752075 7.30725098 0.02783203 C8.70567952 0.04825868 10.10410174 0.06912266 11.5025177 0.09039307 C12.93311778 0.09785448 14.36372809 0.10354788 15.79434204 0.10754395 C19.5576861 0.1228085 23.32041153 0.16209631 27.08351135 0.20635986 C30.92426688 0.2472955 34.76512248 0.26555124 38.60603333 0.28570557 C46.1408204 0.32859069 53.67509796 0.39685078 61.20954895 0.48101807 C55.66641048 10.25149476 50.01431943 19.95135359 44.27204895 29.60601807 C43.863255 30.29421631 43.45446106 30.98241455 43.03327942 31.69146729 C36.63392576 42.46243653 30.15704494 53.18377199 23.63679504 63.88189697 C16.92485913 74.9056232 10.3442226 86.00615753 3.76574707 97.10986328 C3.37852982 97.76343811 2.99131256 98.41701294 2.59236145 99.09039307 C2.21138809 99.73349426 1.83041473 100.37659546 1.43789673 101.03918457 C-1.76694158 106.44676349 -4.9924289 111.84174276 -8.22795105 117.23101807 C-8.6868573 118.00010498 -9.14576355 118.76919189 -9.61857605 119.56158447 C-12.1026373 123.71617691 -14.63530611 127.83355907 -17.22013855 131.92633057 C-17.78547302 132.83415283 -18.3508075 133.7419751 -18.93327332 134.67730713 C-20.01615424 136.41460345 -21.11227308 138.14374492 -22.22380066 139.862854 C-22.7059906 140.64177002 -23.18818054 141.42068604 -23.6849823 142.22320557 C-24.11657654 142.90238037 -24.54817078 143.58155518 -24.99284363 144.28131104 C-26.8672579 149.45072414 -24.08888486 154.63353796 -22.1146698 159.43804932 C-21.83782852 160.1168364 -21.56098724 160.79562347 -21.27575684 161.49497986 C-20.34891783 163.76356621 -19.41337543 166.02845979 -18.47795105 168.29351807 C-17.81132926 169.92087406 -17.14533011 171.54848522 -16.47990417 173.17633057 C-15.03236982 176.71490321 -13.58133263 180.25201215 -12.12785339 183.78814697 C-9.70033206 189.69640062 -7.28525817 195.60969868 -4.8724823 201.52398682 C-4.45701645 202.54237137 -4.0415506 203.56075592 -3.61349487 204.61000061 C-2.76649559 206.68624684 -1.91952614 208.76250525 -1.07258606 210.83877563 C0.21842488 214.00277109 1.51035296 217.16639056 2.80256653 220.32989502 C8.08726663 233.26858814 13.35184548 246.2152096 18.59577942 259.17047119 C24.53436802 273.83959855 30.51532406 288.49131739 36.50074768 303.14138794 C42.44463184 317.69041778 48.36552251 332.24845377 54.25450134 346.8197937 C58.55909795 357.46855792 62.92321255 368.08909925 67.41902161 378.65899658 C67.79204407 379.54256836 68.16506653 380.42614014 68.5493927 381.33648682 C69.03460388 382.47573608 69.03460388 382.47573608 69.52961731 383.63800049 C70.20954895 385.48101807 70.20954895 385.48101807 70.20954895 387.48101807 C49.74954895 387.48101807 29.28954895 387.48101807 8.20954895 387.48101807 C-1.6732397 362.51397305 -11.52711998 337.53611058 -21.33940125 312.54129028 C-26.80247933 298.62532041 -32.27252374 284.71223545 -37.76960754 270.80966187 C-40.44766302 264.03519873 -43.12050376 257.25868052 -45.79045105 250.48101807 C-46.31823151 249.14124908 -46.31823151 249.14124908 -46.85667419 247.77441406 C-49.11963711 242.02761264 -51.37793553 236.27900574 -53.63108826 230.52835083 C-54.3572462 228.67642785 -55.08456551 226.82495979 -55.81309509 224.97396851 C-56.81789137 222.42027874 -57.81839784 219.86494979 -58.8177948 217.30914307 C-59.12008499 216.54345505 -59.42237518 215.77776703 -59.73382568 214.98887634 C-61.79045105 209.70940538 -61.79045105 209.70940538 -61.79045105 207.48101807 C-62.45045105 207.48101807 -63.11045105 207.48101807 -63.79045105 207.48101807 C-64.05350037 208.35580811 -64.31654968 209.23059814 -64.58757019 210.13189697 C-65.77462531 213.43695525 -67.19129457 216.08701339 -69.0365448 219.06695557 C-69.69952576 220.14654541 -70.36250671 221.22613525 -71.045578 222.33843994 C-71.40028168 222.91005859 -71.75498535 223.48167725 -72.12043762 224.07061768 C-74.04678923 227.17605082 -75.95240169 230.29419729 -77.86076355 233.41070557 C-78.26190872 234.06468323 -78.66305389 234.71866089 -79.07635498 235.39245605 C-83.66044189 242.87726881 -88.13409328 250.42703553 -92.60295105 257.98101807 C-94.82554712 261.73777691 -94.82554712 261.73777691 -95.88742828 263.52277184 C-96.63329697 264.78830239 -97.36968233 266.0595065 -98.09319496 267.33794975 C-100.12180661 270.87720479 -102.23963247 274.11000436 -104.82852173 277.26586914 C-117.01130253 293.05312802 -115.45328541 310.67367148 -115.2091074 329.63491344 C-115.16168119 334.31805476 -115.18320557 339.00091454 -115.19688416 343.6842041 C-115.21248753 352.52039222 -115.16760959 361.35515614 -115.10006213 370.19105744 C-115.02607356 380.26390956 -115.02093647 390.33644708 -115.02109194 400.40952826 C-115.01989424 421.10078751 -114.9247468 441.79016508 -114.79045105 462.48101807 C-134.26045105 462.48101807 -153.73045105 462.48101807 -173.79045105 462.48101807 C-173.73171814 457.45278809 -173.67298523 452.42455811 -173.61247253 447.24395752 C-173.42986868 430.52835227 -173.34174741 413.81319972 -173.30079556 397.09667683 C-173.2737357 386.97277162 -173.21564758 376.85093442 -173.08073425 366.72784424 C-172.96302696 357.88957334 -172.9073827 349.05329593 -172.92191368 340.21421975 C-172.92753463 335.546241 -172.90505532 330.88275605 -172.80784416 326.21569252 C-172.29081694 300.09713803 -176.32308923 283.71747565 -191.79045105 262.48101807 C-193.58574908 259.78295871 -195.32250727 257.05094731 -197.05607605 254.31304932 C-199.07308805 251.24742028 -201.10459818 248.20107415 -203.19670105 245.18609619 C-203.8515448 244.17611572 -204.50638855 243.16613525 -205.18107605 242.12554932 C-205.75889832 241.2732373 -206.33672058 240.42092529 -206.93205261 239.54278564 C-208.28832387 234.70518671 -206.53359863 231.06664626 -204.79045105 226.48101807 C-204.24915054 225.05028709 -204.24915054 225.05028709 -203.69691467 223.59065247 C-202.46414564 220.42332153 -201.18978504 217.27551328 -199.9037323 214.12945557 C-199.4418602 212.98941071 -198.9799881 211.84936584 -198.50411987 210.67477417 C-197.04128065 207.06679339 -195.57222294 203.46138339 -194.10295105 199.85601807 C-193.10398212 197.39675586 -192.10644025 194.9369179 -191.10881042 192.47711182 C-188.67408689 186.4764839 -186.23426542 180.47794898 -183.79045105 174.48101807 C-181.18299 176.98987087 -179.50362801 179.46072272 -177.7084198 182.61773682 C-177.11287292 183.65849365 -176.51732605 184.69925049 -175.9037323 185.77154541 C-175.26822449 186.89254639 -174.63271667 188.01354736 -173.97795105 189.16851807 C-172.97235201 190.92961545 -171.96499046 192.68969733 -170.95759583 194.44976807 C-170.26691545 195.65680694 -169.57679677 196.86416737 -168.88722229 198.07183838 C-165.39312014 204.18884831 -161.84602652 210.27456022 -158.29045105 216.35601807 C-157.46516907 217.76887085 -157.46516907 217.76887085 -156.62321472 219.21026611 C-155.56200588 221.02689 -154.5005704 222.84338151 -153.43888855 224.659729 C-150.55323662 229.59850176 -147.67199156 234.53984571 -144.79045105 239.48101807 C-141.91882428 236.03490844 -139.53007165 232.54591115 -137.2787323 228.66851807 C-136.9530426 228.11029358 -136.62735291 227.55206909 -136.29179382 226.97692871 C-135.59063037 225.77397165 -134.89131281 224.56993711 -134.19367981 223.3649292 C-133.08534341 221.45060608 -131.97210358 219.53921143 -130.85758972 217.628479 C-129.29418158 214.94700055 -127.73278251 212.26436969 -126.17326355 209.58062744 C-122.68909546 203.58503217 -119.19781066 197.59362287 -115.69825745 191.60699463 C-114.62998887 189.77732686 -113.56520812 187.94566248 -112.50065613 186.11383057 C-109.2211483 180.49889748 -105.86270284 174.99753064 -102.2096405 169.61871338 C-99.64178452 165.75080576 -97.32129225 161.73747227 -94.97795105 157.73101807 C-94.42881042 156.79709229 -93.8796698 155.8631665 -93.31388855 154.90093994 C-91.46978455 151.76269201 -89.62985097 148.62202527 -87.79045105 145.48101807 C-86.75673531 143.71741162 -85.72279719 141.95393567 -84.68885803 140.19046021 C-82.15591558 135.87025767 -79.62351453 131.54973844 -77.09220886 127.22857666 C-72.81649262 119.93040229 -68.53155448 112.63779335 -64.22795105 105.35601807 C-63.46599426 104.06558594 -63.46599426 104.06558594 -62.68864441 102.74908447 C-60.04307306 98.27323584 -57.38771486 93.80348912 -54.71786499 89.34207153 C-53.27944444 86.93739356 -51.84421461 84.53081777 -50.40913391 82.12414551 C-49.3908451 80.41945548 -48.36795722 78.71751526 -47.34489441 77.01568604 C-43.6952361 70.89358899 -40.35463361 64.71214099 -37.21842957 58.31304932 C-35.00933446 53.9318725 -32.50914441 49.74434265 -29.97795105 45.54351807 C-28.84830125 43.65203486 -27.71943943 41.76008088 -26.5912323 39.86773682 C-25.68558533 38.35059082 -25.68558533 38.35059082 -24.76164246 36.80279541 C-22.581205 33.12840453 -20.4232733 29.44143312 -18.2709198 25.75054932 C-17.88850632 25.09532791 -17.50609283 24.44010651 -17.11209106 23.76502991 C-15.58669151 21.15112031 -14.06144599 18.53713279 -12.54029846 15.92074585 C-11.47745112 14.09318594 -10.41157205 12.2674245 -9.34513855 10.44195557 C-8.73138367 9.38798584 -8.11762878 8.33401611 -7.48527527 7.24810791 C-6.92598328 6.33496826 -6.36669128 5.42182861 -5.79045105 4.48101807 C-5.38869156 3.77331268 -4.98693207 3.0656073 -4.57299805 2.3364563 C-2.79045105 0.48101807 -2.79045105 0.48101807 0 0 Z " fill="#FDFDFE" transform="translate(893.7904510498047,555.5189819335938)"/>
<path d="M0 0 C0.95708359 0.00222061 1.91416718 0.00444122 2.9002533 0.00672913 C3.98129837 0.00680466 5.06234344 0.00688019 6.17614746 0.00695801 C7.94018166 0.01469994 7.94018166 0.01469994 9.73985291 0.02259827 C10.93702438 0.02401321 12.13419586 0.02542816 13.36764526 0.02688599 C17.20918732 0.03250472 21.05067208 0.04506041 24.89219666 0.05775452 C27.48920102 0.0627671 30.0862063 0.06733043 32.68321228 0.07142639 C39.06539344 0.08248024 45.44754096 0.0992366 51.82969666 0.12025452 C54.85140923 7.51572882 57.87211013 14.91161604 60.89219666 22.30775452 C61.57421143 23.97798676 61.57421143 23.97798676 62.27000427 25.68196106 C66.83548414 36.86419198 71.40061572 48.04653125 75.93516541 59.24134827 C76.24482742 60.00562637 76.55448944 60.76990448 76.87353516 61.55734253 C78.36896601 65.24986341 79.861368 68.94357356 81.34947205 72.63905334 C84.24238723 79.81215955 87.17368433 86.96574824 90.18840027 94.08866882 C91.70900708 97.68305282 93.21815671 101.28220617 94.72727966 104.88142395 C95.45446509 106.60558052 96.18765956 108.32721668 96.92723083 110.0460968 C97.95135218 112.42677709 98.95485147 114.81523567 99.95469666 117.20619202 C100.2621582 117.90552856 100.56961975 118.60486511 100.88639832 119.32539368 C102.81928253 124.02186677 103.1150834 127.21328002 101.82969666 132.12025452 C100.36192322 135.22792053 100.36192322 135.22792053 98.47032166 138.37416077 C98.12931427 138.94896683 97.78830688 139.52377289 97.43696594 140.11599731 C96.32874372 141.97833293 95.20459259 143.83045174 94.07969666 145.68275452 C93.30827901 146.97101259 92.53794349 148.25991923 91.7686615 149.54945374 C90.21246135 152.1554569 88.65052418 154.75788954 87.08457947 157.35804749 C84.99986421 160.82647337 82.95227349 164.3147795 80.91563416 167.81166077 C80.32749939 168.81962708 79.73936462 169.82759338 79.13340759 170.86610413 C78.03815383 172.74456946 76.94495725 174.6242362 75.85411072 176.50526428 C75.3639447 177.33985168 74.87377869 178.17443909 74.36875916 179.03431702 C73.94804138 179.75570862 73.52732361 180.47710022 73.09385681 181.22035217 C71.83722528 183.10893978 70.48864706 184.58087899 68.82969666 186.12025452 C59.38914024 163.36105699 50.45757721 140.40228507 41.48381042 117.45625305 C37.6973005 107.77588594 33.89272127 98.10270376 30.07969666 88.43275452 C29.53168233 87.0426178 28.98366801 85.65248108 28.43565369 84.26234436 C27.23402903 81.21483845 26.03209005 78.16745718 24.82969666 75.12025452 C20.65953401 83.85883337 17.13415601 92.81421302 13.64515686 101.83869934 C12.61182128 104.51131736 11.57463965 107.1824156 10.53648376 109.85316467 C9.05568769 113.66297559 7.57610612 117.47325478 6.09727478 121.28382874 C2.75073707 129.90229709 -0.61537559 138.51310637 -3.98405457 147.12294006 C-4.73388191 149.03950715 -5.48345423 150.95617402 -6.23277283 152.87294006 C-10.42226241 163.58920984 -14.63025351 174.29776047 -18.87733459 184.99134827 C-19.26110764 185.95844727 -19.64488068 186.92554626 -20.0402832 187.92195129 C-21.86058631 192.50846178 -23.68400002 197.09368054 -25.5138092 201.67640686 C-28.51899659 209.22705892 -31.44650699 216.7806679 -34.09608459 224.46400452 C-37.35306924 233.88435784 -41.11416948 243.09025861 -44.88478088 252.31459045 C-47.00354667 257.49995199 -49.10772288 262.69123425 -51.21327209 267.88197327 C-51.63629608 268.92412994 -52.05932007 269.96628662 -52.49516296 271.0400238 C-56.35136834 280.54794552 -60.15601602 290.07559286 -63.92030334 299.62025452 C-64.22409912 300.39051971 -64.5278949 301.16078491 -64.84089661 301.95439148 C-69.67778305 314.23161809 -74.42026778 326.54421394 -79.14125061 338.86637878 C-94.81109095 379.74857713 -111.03864836 420.41884808 -127.17030334 461.12025452 C-147.63030334 461.12025452 -168.09030334 461.12025452 -189.17030334 461.12025452 C-182.28982471 442.77231148 -182.28982471 442.77231148 -178.58045959 433.74916077 C-178.16329681 432.72852036 -177.74613403 431.70787994 -177.31632996 430.65631104 C-176.42210791 428.46881822 -175.52692584 426.28171764 -174.63084412 424.09498596 C-172.4420226 418.75267709 -170.2597703 413.40768859 -168.0780201 408.06248856 C-167.57033174 406.81867307 -167.06257351 405.5748861 -166.55474663 404.33112717 C-160.7828751 390.19345607 -155.06602711 376.0337406 -149.35780334 361.87025452 C-148.38719372 359.46245341 -147.41657204 357.05465716 -146.44593811 354.64686584 C-145.02617618 351.12485485 -143.60644108 347.60283306 -142.18685913 344.08074951 C-137.85729355 333.34015652 -133.51652854 322.60411562 -129.17030334 311.87025452 C-128.82796661 311.02477051 -128.48562988 310.1792865 -128.13291931 309.30818176 C-125.81280285 303.5785665 -123.49169398 297.84935363 -121.17030334 292.12025452 C-120.51470259 290.50209118 -119.85910363 288.88392712 -119.20350647 287.26576233 C-117.90833547 284.06898467 -116.61267822 280.87240463 -115.31678772 277.67591858 C-114.07124889 274.60317525 -112.82789757 271.52956096 -111.58631897 268.45521545 C-108.84816911 261.68104303 -106.09449242 254.91488859 -103.27229309 248.17521667 C-102.02687625 245.19933382 -100.79043834 242.21975695 -99.55445862 239.23994446 C-98.9714472 237.84222227 -98.38373766 236.44644919 -97.79103088 235.05281067 C-96.97868894 233.14243667 -96.18234089 231.22610249 -95.38905334 229.30775452 C-94.70746155 227.68933655 -94.70746155 227.68933655 -94.01210022 226.03822327 C-92.70178288 221.49619518 -93.61247416 219.19551659 -95.75819397 215.0594635 C-96.44012031 213.90727036 -97.13009306 212.75981476 -97.82655334 211.61634827 C-98.20038147 210.98970779 -98.57420959 210.36306732 -98.95936584 209.71743774 C-100.18932777 207.65991176 -101.429682 205.60886775 -102.67030334 203.55775452 C-103.53741304 202.11213466 -104.40394183 200.66616622 -105.26991272 199.21986389 C-111.38543573 189.02068131 -117.56311924 178.85858309 -123.75233459 168.70399475 C-129.12517533 159.8820145 -134.40892214 151.00907323 -139.67030334 142.12025452 C-145.72104986 131.89988223 -151.81143337 121.7058009 -157.98280334 111.55775452 C-158.32906769 110.9882608 -158.67533203 110.41876709 -159.03208923 109.83201599 C-162.79290809 103.64901979 -166.56539309 97.47319167 -170.34217834 91.29994202 C-171.32674011 89.68841248 -171.32674011 89.68841248 -172.33119202 88.04432678 C-173.57146155 86.01489615 -174.81371895 83.98667864 -176.0582428 81.95985413 C-176.60182434 81.07048157 -177.14540588 80.18110901 -177.70545959 79.26478577 C-178.42294373 78.094599 -178.42294373 78.094599 -179.15492249 76.90077209 C-180.17030334 75.12025452 -180.17030334 75.12025452 -180.17030334 74.12025452 C-171.97437 73.48928042 -163.78878999 73.01266871 -155.57445526 72.72132587 C-151.75693796 72.58130016 -147.95617365 72.39266881 -144.14833069 72.08338928 C-124.16073979 70.50272524 -124.16073979 70.50272524 -115.17030334 74.12025452 C-107.91851439 80.42025671 -104.19801276 89.19179526 -100.55104065 97.88627625 C-98.87058892 101.82224897 -96.83324857 105.39934131 -94.59999084 109.03822327 C-93.41318477 111.1269828 -92.22821023 113.21678433 -91.04530334 115.30775452 C-89.72701526 117.62327464 -88.40814181 119.93844929 -87.08827209 122.25306702 C-86.44293518 123.38518616 -85.79759827 124.5173053 -85.13270569 125.68373108 C-81.89132961 131.35997015 -78.6330694 137.02598436 -75.35780334 142.68275452 C-74.48647766 144.20002136 -74.48647766 144.20002136 -73.59754944 145.74794006 C-73.05823792 146.6764679 -72.51892639 147.60499573 -71.96327209 148.56166077 C-71.49429504 149.37320618 -71.02531799 150.18475159 -70.54212952 151.02088928 C-69.24680412 153.00318205 -67.91034638 154.52508152 -66.17030334 156.12025452 C-56.93624369 133.71708763 -47.79377068 111.27838141 -38.73371887 88.80427551 C-30.62915507 68.70248719 -22.46532315 48.6253911 -14.27723694 28.55751038 C-13.60766212 26.91613853 -13.60766212 26.91613853 -12.92456055 25.24160767 C-12.09724805 23.21382415 -11.26960961 21.18617356 -10.44155884 19.15869141 C-10.06837021 18.24414688 -9.69518158 17.32960236 -9.3106842 16.38734436 C-8.77760147 15.08153412 -8.77760147 15.08153412 -8.23374939 13.74934387 C-6.79133247 10.18334917 -5.3855172 6.6030941 -3.98599243 3.02006531 C-2.7548571 0.1526441 -2.7548571 0.1526441 0 0 Z " fill="#FEFEFE" transform="translate(725.1703033447266,481.87974548339844)"/>
</svg>
